<svg xmlns="http://www.w3.org/2000/svg" version="1.0" preserveAspectRatio="xMidYMid meet" viewBox="34.06 8.24 647.87 172.49">

<g transform="translate(0.000000,187.000000) scale(0.100000,-0.100000)" fill="#000000" stroke="none">
<path d="M1925 1775 c-36 -16 -165 -150 -165 -171 0 -9 -11 -39 -24 -68 -43 -93 -84 -219 -101 -312 -24 -125 -14 -335 21 -441 22 -69 72 -157 98 -175 23 -16 47 -6 70 29 20 30 27 60 35 142 19 180 13 325 -30 749 l-11 114 27 28 c63 66 130 61 159 -11 19 -47 36 -153 36 -224 0 -80 -27 -185 -54 -214 -34 -37 -48 -69 -41 -91 8 -26 31 -26 45 0 16 30 23 25 52 -33 31 -63 45 -127 57 -263 11 -117 42 -204 72 -204 22 0 55 49 65 95 10 50 45 148 62 178 39 65 58 19 90 -208 6 -41 11 -51 28 -53 18 -3 25 5 38 42 9 25 24 66 33 91 24 67 37 74 70 34 15 -18 27 -41 25 -50 -5 -29 28 -129 42 -129 8 0 19 13 25 29 11 25 9 33 -18 74 -17 24 -31 49 -31 55 0 6 -10 35 -21 65 -37 96 -64 83 -104 -49 -16 -53 -31 -84 -38 -81 -7 2 -16 30 -20 63 -20 149 -45 214 -82 214 -16 0 -95 -155 -95 -187 0 -33 -38 -113 -53 -113 -23 0 -36 45 -58 193 -24 169 -35 215 -65 285 -23 52 -23 54 -7 115 11 43 16 107 17 207 0 171 -15 228 -73 267 -39 26 -36 26 -76 8z m-132 -415 c36 -258 42 -611 10 -672 -16 -34 -24 -35 -50 -5 -61 66 -84 160 -90 359 l-5 167 37 118 c38 122 61 171 75 157 4 -5 15 -61 23 -124z"/>
<path d="M375 1675 c-14 -25 -29 -68 -32 -95 -10 -83 9 -125 98 -220 l80 -85 -6 -50 c-26 -221 -33 -373 -16 -346 11 17 36 158 48 265 4 38 13 71 18 72 6 2 25 -9 43 -24 39 -33 52 -94 52 -247 0 -130 -11 -191 -43 -222 -29 -29 -68 -26 -112 9 -24 19 -26 25 -21 72 l5 51 -12 -40 c-9 -31 -16 -40 -30 -37 -24 5 -44 -13 -68 -59 -24 -47 -24 -82 -2 -105 16 -16 19 -15 43 14 25 30 27 31 85 23 144 -20 186 53 185 327 0 114 3 152 13 152 19 0 160 -151 180 -192 11 -23 17 -61 17 -105 0 -41 5 -74 12 -81 10 -10 9 -18 -5 -41 -16 -28 -15 -48 8 -103 11 -28 44 -22 51 8 4 14 -1 85 -11 156 -22 167 -12 223 63 351 34 59 50 68 72 42 20 -24 50 -19 50 8 0 24 -33 67 -51 67 -29 0 -96 -109 -139 -227 -7 -18 -16 -33 -19 -33 -4 0 -20 19 -37 42 -33 48 -147 165 -186 190 -20 14 -28 29 -33 70 -11 84 -43 215 -67 271 -25 61 -78 121 -130 148 -56 29 -73 25 -103 -26z m75 -5 c21 0 79 -64 98 -108 l20 -47 -20 -75 c-11 -41 -24 -79 -29 -84 -23 -25 -129 129 -145 210 -7 41 30 119 52 110 9 -3 20 -6 24 -6z m157 -313 c11 -62 2 -81 -25 -54 -15 16 -19 70 -6 109 9 30 21 10 31 -55z"/>
<path d="M4603 1698 c-97 -47 -170 -165 -180 -294 -5 -58 -3 -67 51 -181 67 -142 82 -211 61 -281 -16 -53 -44 -88 -83 -103 -21 -8 -31 -6 -53 10 -23 17 -29 18 -39 6 -21 -25 21 -75 63 -75 25 0 107 70 126 108 11 21 24 64 31 97 15 78 -3 151 -71 290 -27 55 -52 121 -55 146 -6 41 -2 55 31 118 39 74 66 100 124 119 59 21 90 15 109 -18 28 -48 49 -34 31 20 -8 22 -23 37 -45 46 -43 18 -50 17 -101 -8z"/>
<path d="M4833 1368 c-4 -7 -10 -62 -13 -123 l-5 -110 -42 -9 c-33 -7 -43 -13 -43 -28 0 -16 6 -19 33 -17 62 4 64 3 76 -63 24 -126 45 -203 58 -217 21 -24 27 -4 15 51 -6 29 -14 76 -17 103 -3 28 -8 69 -11 91 -6 39 -4 43 23 56 38 18 36 42 -3 46 -40 4 -44 17 -44 140 0 86 -8 109 -27 80z"/>
<path d="M3727 1283 c-10 -43 -21 -115 -26 -161 -9 -88 -36 -154 -100 -250 -37 -54 -76 -76 -92 -51 -4 8 -13 35 -20 61 -11 47 -10 49 35 126 48 82 58 130 31 152 -22 18 -37 7 -62 -41 -28 -59 -42 -139 -37 -226 8 -163 70 -178 165 -38 24 36 47 65 50 65 12 0 21 -133 15 -211 -3 -41 -1 -99 4 -129 6 -30 17 -129 26 -220 16 -171 46 -304 67 -297 7 2 24 23 39 48 32 52 49 145 50 275 0 111 -18 160 -91 237 l-50 53 -7 95 c-7 115 10 376 32 482 15 75 14 107 -4 107 -4 0 -16 -35 -25 -77z m-187 -185 c-1 -21 -31 -68 -44 -68 -11 0 -6 31 9 60 18 36 35 39 35 8z m238 -525 c40 -57 53 -96 61 -182 12 -136 -16 -290 -52 -278 -7 2 -15 35 -19 78 -4 41 -12 121 -17 179 -6 58 -13 133 -17 168 -5 52 -3 62 9 62 9 0 24 -12 35 -27z"/>
<path d="M5400 1274 c0 -31 23 -28 28 4 2 15 -2 22 -12 22 -11 0 -16 -9 -16 -26z"/>
<path d="M2505 1219 c-16 -5 -46 -7 -65 -4 -42 6 -63 -5 -58 -31 5 -26 78 -34 78 -8 0 14 7 15 56 9 54 -6 56 -6 52 17 -3 26 -20 31 -63 17z"/>
<path d="M2953 1163 c-11 -29 -8 -80 6 -107 14 -25 8 -62 -8 -52 -12 8 -21 -44 -21 -122 0 -140 -69 -259 -101 -174 -12 30 -4 124 13 157 6 11 23 30 39 43 36 29 40 65 7 60 -17 -2 -32 -21 -56 -68 -27 -53 -34 -80 -38 -150 -5 -80 -4 -87 19 -115 l25 -30 27 25 c41 38 64 91 81 188 17 96 29 120 40 76 4 -16 10 -34 15 -39 4 -6 7 -24 7 -40 -1 -17 9 -50 22 -75 28 -56 25 -53 49 -45 23 7 29 45 7 45 -7 0 -19 12 -25 28 -11 28 -45 195 -56 272 -16 120 -36 166 -52 123z"/>
<path d="M5116 1117 c-29 -21 -47 -126 -35 -201 12 -76 26 -104 61 -122 42 -22 66 -17 99 18 41 46 38 71 -4 30 -39 -38 -46 -39 -78 -9 -49 45 -52 53 -32 89 10 18 28 45 41 59 32 36 41 103 17 129 -21 23 -44 25 -69 7z m44 -42 c6 -8 9 -23 6 -33 -10 -31 -44 -65 -57 -57 -21 14 5 105 31 105 4 0 13 -7 20 -15z"/>
<path d="M6371 1112 c-5 -10 -9 -34 -9 -53 1 -19 -2 -54 -6 -79 -7 -42 -6 -44 8 -26 9 11 19 34 22 52 9 47 27 59 72 48 l37 -9 -1 -55 c-1 -30 -5 -84 -9 -120 -6 -58 -5 -68 14 -92 12 -15 34 -28 49 -30 19 -2 28 -9 30 -25 4 -26 37 -38 67 -26 32 14 85 47 85 55 0 3 -26 4 -57 1 -53 -5 -62 -2 -100 26 -66 48 -74 72 -57 161 21 111 19 135 -11 148 -14 7 -34 12 -44 12 -9 0 -26 7 -37 15 -26 19 -41 19 -53 -3z"/>
<path d="M5372 964 c4 -94 9 -121 25 -142 26 -35 57 -39 77 -10 29 41 11 79 -22 46 -6 -6 -15 -9 -18 -5 -10 10 -34 119 -34 159 0 43 -8 68 -22 68 -7 0 -9 -40 -6 -116z"/>
<path d="M6172 1065 c-11 -8 -30 -45 -42 -81 -20 -59 -21 -71 -10 -105 17 -50 71 -109 100 -109 23 0 100 70 100 91 0 5 -17 -2 -37 -16 -46 -31 -54 -31 -80 -2 -47 51 -68 128 -41 155 16 16 28 15 28 -3 0 -20 26 -19 34 1 20 53 -12 96 -52 69z"/>
<path d="M5612 1050 c-17 -27 -15 -50 3 -50 19 0 54 -74 55 -112 0 -44 20 -78 47 -78 17 0 31 13 53 47 17 26 30 53 30 60 0 8 10 28 22 46 13 18 24 34 26 36 8 15 50 -48 66 -101 30 -96 44 -120 69 -116 21 3 65 64 53 75 -3 3 -14 -1 -24 -10 -10 -10 -21 -17 -25 -17 -11 0 -29 41 -61 135 -28 81 -33 90 -56 90 -21 0 -31 -12 -65 -77 -23 -43 -46 -83 -53 -90 -16 -16 -26 -2 -47 67 -18 60 -50 115 -67 115 -7 0 -19 -9 -26 -20z"/>
<path d="M3289 953 c-1 -4 0 -12 1 -18 1 -5 8 -35 15 -65 28 -114 -17 -170 -63 -80 -19 37 -22 55 -18 103 7 68 -6 75 -24 12 -19 -68 -16 -115 11 -170 32 -67 64 -73 102 -18 25 37 27 45 24 138 -2 95 -3 100 -24 103 -13 2 -24 0 -24 -5z"/>
<path d="M1170 805 c-18 -21 3 -68 28 -63 24 5 27 41 4 61 -17 16 -20 16 -32 2z"/>
<path d="M6794 795 c-17 -13 -17 -14 -2 -15 9 0 20 5 23 11 11 17 0 20 -21 4z"/>
</g>
</svg>